<svg width="993" height="975" viewBox="0 0 662 650" fill="none" xmlns="http://www.w3.org/2000/svg">
<path d="M192 0C207.417 4.7438 217.997 14.4923 225.489 28.4707C229.117 35.6636 230.305 42.4893 230.09 50.4531C230.069 52.0586 230.049 53.6641 230.029 55.2695C229.986 57.7552 229.938 60.2406 229.884 62.7261C229.602 76.6694 229.99 88.6107 239 100C239.476 100.615 239.951 101.23 240.441 101.863C243.558 105.693 247.054 108.857 250.793 112.066C261.991 121.877 269.062 131.995 274.641 145.738C276.719 151.793 276.719 151.793 281 156C286.965 156.291 292.725 155.518 298.625 154.688C299.553 154.57 300.481 154.452 301.438 154.33C308.254 153.476 308.254 153.476 314 150C317.348 144.818 319.233 138.893 321.125 133.062C321.376 132.315 321.628 131.568 321.887 130.799C326.15 117.864 329.051 103.787 323.07 90.918C322.129 89.2304 321.072 87.608 320 86C327.434 88.0907 333.275 94.2947 336.969 100.871C342.151 111.569 342.582 124.441 340 136C339.622 140.245 339.56 143.874 341.125 147.875C345.871 153.254 352.848 153.99 359.562 155.188C360.495 155.365 361.428 155.542 362.389 155.725C368.65 156.917 368.65 156.917 375 157C380.963 151.213 382.991 143.456 383.142 135.4C383.157 133.557 383.168 131.714 383.176 129.871C383.199 127.846 383.223 125.82 383.248 123.795C383.283 120.625 383.312 117.454 383.326 114.284C383.41 97.7111 384.098 82.4323 396.188 69.6953C400.597 65.6111 405.291 62.002 410.125 58.4375C419.077 51.7864 424.878 45.1293 430.434 35.5625C431.209 34.2941 431.209 34.2941 432 33C432.33 33 432.66 33 433 33C432.592 49.4139 424.322 61.2345 413.98 73.1108C405.207 83.4019 403.299 93.3062 403.794 106.495C404.123 110.495 405.024 114.302 406 118.188C408.9 129.886 408.549 140.538 406.075 152.266C404.909 157.908 404.672 163.264 405 169C405.714 169.266 406.428 169.531 407.164 169.805C410.076 171.032 412.659 172.514 415.375 174.125C421.365 177.477 421.365 177.477 428 177C431.603 174.263 434.767 171.157 438 168C439.516 166.855 439.516 166.855 441.062 165.688C452.37 155.342 459.001 141.839 462 127C466.45 131.45 465.362 139.471 465.385 145.42C465.1 161.692 456.99 175.14 447.285 187.746C445.638 190.635 445.238 191.727 446 195C448.046 197.677 450.428 199.942 452.875 202.25C453.526 202.887 454.177 203.524 454.848 204.18C459.055 208.454 459.055 208.454 464.562 210.438C471.925 209.5 477.794 203.957 482.383 198.375C486.79 191.902 489.447 184.446 492.298 177.194C498.318 161.887 505.802 149.688 521 142C526.854 139.571 532.858 137.659 538.91 135.793C546.409 133.448 552.804 130.904 559 126C559.812 125.404 560.624 124.809 561.461 124.195C569.295 117.422 574.094 107.397 578 98C578.655 96.6608 579.317 95.3253 580 94C580.836 110.171 578.346 125.27 568.141 138.391C560.478 146.86 550.058 151.441 539.625 155.625C526.559 160.904 518.528 169.093 513 182C511.841 185.606 510.947 189.256 510.062 192.938C506.314 207.357 500.311 216.51 490 227C489.437 227.608 488.873 228.217 488.293 228.844C487 230 487 230 485 230C482.631 233.702 482.63 236.671 483 241C484.166 244.014 485.707 246.763 487.312 249.562C488.122 251.022 488.93 252.482 489.738 253.941C490.128 254.63 490.518 255.318 490.92 256.028C491.891 257.801 492.756 259.631 493.605 261.465C494.797 264.309 494.797 264.309 498 265C511.213 264.943 523.126 263.061 535 257C535.825 256.58 536.65 256.16 537.5 255.727C543.998 252.141 548.338 247.714 553 242C553.66 241.34 554.32 240.68 555 240C553.278 253.227 544.838 263.255 534.938 271.625C528.542 276.383 521.174 279.599 514 283C512.039 283.931 510.08 284.868 508.125 285.812C507.364 286.17 506.604 286.527 505.82 286.895C503.683 288.017 503.683 288.017 502 291C501.678 297.009 502.258 302.859 503.062 308.812C503.147 309.657 503.231 310.502 503.318 311.373C503.653 313.781 504.013 315.777 505 318C512.087 322.327 518.771 321.652 526.574 319.852C533.157 318.159 538.723 315.311 544.625 312C555.348 306.033 564.365 302.413 576.75 302.5C577.712 302.506 578.675 302.511 579.666 302.517C590.852 302.796 599.29 306.574 609.188 311.625C622.873 318.581 637.524 320.645 652.375 316.062C654.254 315.385 656.129 314.699 658 314C659.328 313.645 660.659 313.302 662 313C653.124 323.1 640.464 328.567 627.363 330.551C617.31 331.087 608.701 328.383 599.162 325.515C583.969 321.054 572.626 322.366 558.625 329.75C554.529 332.048 550.583 334.536 546.625 337.062C536.063 343.551 526.153 346.578 513.89 347.749C509.899 348.202 507.464 348.69 504.078 350.957C501.216 355.148 500.296 359.268 499.25 364.188C498.84 365.994 498.429 367.8 498.016 369.605C497.843 370.401 497.671 371.197 497.493 372.016C497 374 497 374 496 376C495.578 379.715 495.821 381.656 497.562 385C509.496 399.687 529.829 406.564 548.074 408.544C549.715 408.707 551.357 408.855 553 409C550.278 411.21 547.903 412.571 544.562 413.625C543.821 413.865 543.08 414.105 542.316 414.352C526.054 418.904 507.687 416.635 492.379 409.836C489.144 408.699 487.4 408.254 484 409C481.632 411.621 480.012 414.605 478.312 417.688C477.84 418.504 477.368 419.321 476.881 420.162C475.97 421.74 475.071 423.326 474.186 424.919C473 427 473 427 471.105 429.77C469.796 431.965 469.796 431.965 470.098 434.539C473.093 442.707 481.667 448.882 489 453C496.269 456.32 503.755 458.918 511.312 461.5C525.936 466.704 535.717 475.311 543 489C544.574 492.555 545.942 496.175 547.312 499.812C553.238 514.773 560.288 526.457 575.367 533.594C578.224 534.804 581.085 535.942 584 537C584 537.33 584 537.66 584 538C567.47 537.554 553.984 533.533 542.108 521.417C537.43 516.053 533.853 509.862 530.088 503.844C520.115 488.34 508.806 483.028 491.41 478.865C476.441 475.234 463.365 468.17 451.844 457.898C448.876 456.452 447.121 457.055 444 458C441.529 459.523 439.344 461.322 437.125 463.188C435.895 464.189 434.665 465.191 433.434 466.191C432.846 466.675 432.258 467.159 431.652 467.657C429.541 469.373 427.375 471.007 425.188 472.625C423.009 474.214 423.009 474.214 421 476C419.118 489.849 425.818 502.533 433.754 513.4C438.888 519.995 445.021 525.448 452 530C448.058 531.971 442.244 528.859 438.184 527.512C422.724 522.092 413.412 512.001 404 499C402.82 497.396 401.614 495.809 400.375 494.25C399.888 493.616 399.4 492.982 398.898 492.328C395.887 490.221 393.601 490.644 390 491C387.222 491.741 384.563 492.737 381.875 493.75C373.995 496.57 366.153 498.323 357.906 499.706C357.063 499.849 356.22 499.993 355.352 500.141C354.607 500.26 353.863 500.378 353.096 500.501C349.837 501.277 347.663 501.996 345.773 504.858C342.289 514.509 344.404 528.073 348.168 537.238C350.472 542.125 353.077 546.863 355.625 551.625C363.205 565.818 367.264 581.056 363.051 597.133C361.914 600.843 360.495 604.419 359 608C358.535 609.14 358.069 610.279 357.59 611.453C356.75 613.48 355.894 615.501 355.016 617.512C351.278 626.669 351.512 639.243 355 648.438C355.371 649.261 355.742 650.085 356.125 650.934C357 653 357 653 357 656C349.036 648.201 342.986 637.558 342.709 626.251C342.64 618.795 343.181 612.055 345 604.812C348.368 591.223 348.41 578.723 341.422 566.164C339.141 562.496 336.705 558.971 334.168 555.477C325.805 543.924 321.473 531.413 319.227 517.367C319.041 516.213 319.041 516.213 318.852 515.036C318.622 513.542 318.409 512.045 318.214 510.546C317.648 506.522 317.648 506.522 315.27 503.369C311.063 500.832 306.267 500.275 301.5 499.312C300.474 499.088 299.448 498.863 298.391 498.631C286.35 495.94 286.35 495.94 274.619 498.163C272.522 499.615 270.795 501.19 269 503C268.111 503.835 268.111 503.835 267.203 504.688C254.887 517.33 250.576 535.921 250 553C248 552 248 552 246.93 549.324C241.394 530.236 243.366 512.122 250.668 493.766C252.423 489.411 252.423 489.411 252 485C249.482 483.222 247.155 481.84 244.438 480.438C236.563 476.125 229.76 471.112 222.879 465.371C219.241 462.375 217.121 461.51 212.344 461.605C204.425 462.939 198.435 468.839 193.809 475.039C190.364 480.679 188.21 486.804 186 493C180.574 507.849 180.574 507.849 176 514C175.265 514.998 175.265 514.998 174.516 516.016C166.413 526.125 155.978 529.926 144.135 534.092C128.643 539.549 116.555 546.009 108.406 560.98C106.438 565.206 105.054 569.465 104 574C103.67 574 103.34 574 103 574C102.089 558.538 106.187 545.573 116.25 533.812C121.564 528.168 127.117 524.449 133.996 520.953C147.234 514.221 157.896 507.553 163.078 492.965C164.751 487.727 166.107 482.501 167.25 477.125C170.811 462.472 179.729 451.523 191 442C192.334 440.897 192.334 440.897 192.062 438.125C191.044 431.385 185.354 425.955 181.242 420.793C180 419 180 419 180 417C159.625 416.113 142.247 423.676 127 437C123.959 440.067 120.944 443.112 119 447C118.34 446.67 117.68 446.34 117 446C121.647 432.881 127.226 422.955 137 413C137.642 412.334 138.284 411.667 138.945 410.98C145.822 404.36 154.186 399.789 162.377 394.996C163.976 394.101 163.976 394.101 165 393C164.453 387.372 163.08 382.016 161.625 376.562C161.416 375.755 161.207 374.947 160.992 374.115C159.168 365.078 159.168 365.078 154.434 357.842C144.658 353.586 134.006 356.474 124.188 359C108.377 362.767 91.1754 365.392 76 358C75.1196 357.576 74.2391 357.152 73.332 356.715C69.2774 354.614 65.4112 352.297 61.6211 349.754C49.4187 341.577 36.9901 336.641 22 338C14.4899 339.567 8.2169 341.523 2 346C1.34 345.67 0.68 345.34 0 345C9.9729 334.135 21.7656 326.714 36.75 325.762C53.3073 325.323 66.1583 331.162 80.9163 338.124C92.003 342.786 104.229 339.931 115 336C116.981 335.317 118.966 334.645 120.953 333.979C122.836 333.347 124.713 332.699 126.59 332.051C133.17 330.023 139.602 329.742 146.43 329.57C148.756 329.497 148.756 329.497 152 329C155.056 324.416 154.751 319.717 155.062 314.312C155.16 313.248 155.257 312.184 155.357 311.088C155.669 305.536 155.577 301.879 151.938 297.496C148.594 294.261 145.094 291.812 140.938 289.75C140.298 289.42 139.658 289.09 138.999 288.75C132.58 285.564 125.97 283.647 119 282C118.053 281.708 118.053 281.708 117.086 281.41C113.845 280.773 110.601 280.854 107.312 280.875C106.602 280.877 105.892 280.879 105.16 280.881C100.045 280.923 95.069 281.276 90 282C96.6588 274.258 110.341 270.627 120.2 269.82C130.305 269.247 139.701 269.83 149.444 272.664C153.718 273.885 156.713 274.245 161 273C162.73 270.876 162.73 270.876 163.773 268.082C164.205 267.075 164.637 266.067 165.082 265.029C165.509 263.968 165.935 262.906 166.375 261.812C166.825 260.77 167.275 259.728 167.738 258.654C169.878 253.54 171.384 249.623 171 244C164.208 230.467 149.417 225.066 136 220.562C116.077 213.811 104.312 202.861 94.9712 183.979C94.6301 183.285 94.289 182.59 93.9375 181.875C87.484 168.752 80.571 158.421 66.3516 152.965C60.3308 151.232 54.2309 150.57 48 150C55.8896 144.74 68.5476 145.999 77.5312 147.648C93.1096 152.445 102.28 162.493 110.647 175.828C120.139 190.815 131.414 196.268 148 201C158.743 204.082 168.203 207.713 177.719 213.715C178.595 214.263 179.472 214.811 180.375 215.375C181.146 215.878 181.917 216.38 182.711 216.898C185.495 218.238 186.948 218.546 190 218C192.681 216.039 192.681 216.039 195.125 213.375C196.397 212.087 196.397 212.087 197.695 210.773C201.692 205.964 203.644 201.76 203.414 195.555C201.995 186.797 197.215 179.014 192 172C191.278 170.989 190.556 169.979 189.812 168.938C182.986 161.089 173.286 156.278 164 152C173.111 149.035 183.92 153.949 192 158C201.994 163.552 210.229 170.529 217.492 179.336C219.092 181.238 219.092 181.238 222 183C229.119 183.065 234.409 179.187 240.312 175.562C241.313 174.964 242.314 174.365 243.346 173.748C248.469 170.762 248.469 170.762 253 167C253.898 154.428 248.733 141.175 240.965 131.453C237.925 128.001 234.758 124.73 231.445 121.539C220.692 111.178 212.703 98.8492 211.797 83.5742C211.702 75.7475 212.29 68.8188 213.919 61.1521C217.235 44.5815 215.386 28.2879 206 14C201.974 8.57674 197.578 4.75638 192 1C192 0.67 192 0.34 192 0ZM229.316 214.805C227.394 216.627 225.443 218.289 223.375 219.938C218.58 224.026 214.83 229.027 211 234C210.193 235.042 209.386 236.083 208.555 237.156C191.57 259.666 179.971 287.643 179.797 316.094C179.791 316.844 179.785 317.593 179.78 318.366C179.77 319.946 179.764 321.526 179.76 323.105C179.75 325.467 179.719 327.827 179.688 330.188C179.418 368.753 196.585 403.64 223 431C223.802 431.837 223.802 431.837 224.621 432.692C250.995 459.714 288.696 475.474 326.283 476.285C365.942 476.651 404.371 461.522 432.973 433.996C461.897 405.583 478.773 368.163 479.241 327.434C479.272 315.307 478.782 303.821 476 292C475.6 290.266 475.6 290.266 475.191 288.496C466.873 256.591 448.453 227.869 422 208C421.202 207.398 420.404 206.796 419.582 206.176C402.259 193.6 382.825 184.785 362 180C361.327 179.836 360.653 179.673 359.959 179.504C314.296 168.726 263.174 182.612 229.316 214.805Z" fill="#ECCD8C"/>
</svg>
